<svg width="11" height="70" viewBox="0 0 11 70" fill="none" xmlns="http://www.w3.org/2000/svg">
<path d="M8 69.9634L0.147461 69.9634L0.147461 68.6797L8 68.6797L8 69.9634ZM8 59.3093L8 60.5769L4.34766 60.5769C3.88932 60.5769 3.54736 60.67 3.32178 60.8562C3.09619 61.0388 2.9834 61.3306 2.9834 61.7316C2.9834 62.2652 3.14095 62.6555 3.45605 62.9025C3.77116 63.1496 4.29932 63.2731 5.04053 63.2731L8 63.2731L8 64.5354L2.05957 64.5354L2.05957 63.5471L2.83838 63.3698L2.83838 63.3054C2.5555 63.1263 2.33708 62.8721 2.18311 62.5427C2.02913 62.2132 1.95215 61.848 1.95215 61.447C1.95215 60.0218 2.67725 59.3093 4.12744 59.3093L8 59.3093ZM6.3081 51.3622C6.88818 51.3622 7.33398 51.5735 7.64551 51.996C7.95345 52.4185 8.10742 53.0237 8.10742 53.8114C8.10742 54.6028 7.98747 55.2383 7.74756 55.7182L6.65723 55.7182C6.97949 55.0199 7.14062 54.37 7.14062 53.7685C7.14062 52.9914 6.90609 52.6029 6.43701 52.6029C6.28662 52.6029 6.16129 52.6459 6.06103 52.7318C5.96077 52.8178 5.85693 52.9592 5.74951 53.1562C5.64209 53.3531 5.52034 53.627 5.38428 53.9779C5.1193 54.6618 4.85433 55.1256 4.58935 55.369C4.32438 55.609 3.98063 55.7289 3.5581 55.7289C3.04964 55.7289 2.65576 55.5248 2.37646 55.1166C2.09359 54.7048 1.95215 54.1462 1.95215 53.4408C1.95215 52.7426 2.09359 52.0819 2.37646 51.4589L3.32715 51.8671C3.06217 52.508 2.92969 53.0469 2.92969 53.4838C2.92969 54.1498 3.11947 54.4828 3.49902 54.4828C3.68522 54.4828 3.84277 54.3969 3.97168 54.225C4.10059 54.0495 4.27783 53.67 4.50342 53.0863C4.6932 52.5958 4.86686 52.2395 5.02441 52.0175C5.18197 51.7955 5.36458 51.6308 5.57226 51.5233C5.77637 51.4159 6.02165 51.3622 6.3081 51.3622ZM7.08691 45.5797C7.08691 45.2717 7.03857 44.9638 6.94189 44.6559L7.89258 44.6559C7.95345 44.7955 8.00358 44.9763 8.04297 45.1983C8.08594 45.4168 8.10742 45.6441 8.10742 45.8805C8.10742 47.0764 7.47721 47.6744 6.2168 47.6744L3.01562 47.6744L3.01562 48.4854L2.45703 48.4854L1.99512 47.6153L0.73828 47.1856L0.73828 46.4068L2.05957 46.4068L2.05957 44.7149L3.01562 44.7149L3.01562 46.4068L6.19531 46.4068C6.49967 46.4068 6.72526 46.3316 6.87207 46.1812C7.0153 46.0273 7.08691 45.8268 7.08691 45.5797ZM8 37.5467L7.17285 37.7991L7.17285 37.8421C7.5345 38.1285 7.78157 38.4168 7.91406 38.7068C8.04297 38.9969 8.10742 39.3693 8.10742 39.824C8.10742 40.4077 7.94987 40.8642 7.63476 41.1937C7.31966 41.5195 6.87386 41.6824 6.29736 41.6824C5.68506 41.6824 5.22314 41.455 4.91162 41.0003C4.6001 40.5455 4.43001 39.8527 4.40137 38.9217L4.36914 37.8958L4.05224 37.8958C3.67269 37.8958 3.38981 37.9853 3.20361 38.1644C3.01383 38.3398 2.91894 38.6137 2.91894 38.9861C2.91894 39.2905 2.9637 39.5823 3.05322 39.8616C3.14274 40.1409 3.24837 40.4095 3.37012 40.6673L2.46777 41.0755C2.29948 40.7532 2.17236 40.4005 2.08642 40.0174C1.99691 39.6342 1.95215 39.2726 1.95215 38.9324C1.95215 38.1769 2.11686 37.6076 2.44629 37.2244C2.77571 36.8377 3.29313 36.6443 3.99853 36.6443L8 36.6443L8 37.5467ZM7.14062 39.4266C7.14062 38.9682 7.01351 38.6012 6.75928 38.3255C6.50146 38.0462 6.1416 37.9065 5.67969 37.9065L5.16406 37.9065L5.19629 38.6692C5.21777 39.2636 5.31803 39.6969 5.49707 39.969C5.67252 40.2376 5.94287 40.3719 6.3081 40.3719C6.57308 40.3719 6.77897 40.2931 6.92578 40.1355C7.06901 39.978 7.14062 39.7417 7.14062 39.4266ZM2.05957 27.666L2.75244 27.666L2.94043 28.6812C3.06575 28.5881 3.21972 28.5111 3.40234 28.4502C3.58496 28.3893 3.77832 28.3589 3.98242 28.3589C4.59472 28.3589 5.07633 28.5701 5.42724 28.9927C5.77816 29.4152 5.95361 29.9971 5.95361 30.7383C5.95361 30.9281 5.93929 31.0999 5.91064 31.2539C6.07894 31.526 6.27588 31.6621 6.50146 31.6621C6.63753 31.6621 6.73958 31.5994 6.80762 31.4741C6.87565 31.3452 6.90967 31.1107 6.90967 30.7705L6.90967 29.7339C6.90967 29.0786 7.04931 28.5809 7.32861 28.2407C7.60791 27.9006 8.01074 27.7305 8.53711 27.7305C9.21028 27.7305 9.72949 28.008 10.0947 28.563C10.46 29.118 10.6426 29.9201 10.6426 30.9692C10.6426 31.7785 10.4993 32.3962 10.2129 32.8223C9.92643 33.2484 9.51823 33.4614 8.98828 33.4614C8.62305 33.4614 8.3151 33.3468 8.06445 33.1177C7.81738 32.8849 7.64551 32.5609 7.54883 32.1455C7.47721 32.3138 7.36263 32.4535 7.20508 32.5645C7.04394 32.6719 6.87565 32.7256 6.70019 32.7256C6.47819 32.7256 6.2902 32.6629 6.13623 32.5376C5.98226 32.4123 5.83008 32.2261 5.67969 31.979C5.5472 32.2869 5.33236 32.5376 5.03515 32.731C4.73437 32.9207 4.38346 33.0156 3.98242 33.0156C3.33789 33.0156 2.83838 32.8133 2.48389 32.4087C2.12939 32.0005 1.95215 31.4204 1.95215 30.6685C1.95215 30.5002 1.96468 30.3247 1.98974 30.1421C2.01123 29.9559 2.0345 29.8162 2.05957 29.7231L2.05957 27.666ZM8.92383 32.3335C9.19596 32.3335 9.40543 32.2118 9.55224 31.9683C9.69905 31.7212 9.77246 31.3757 9.77246 30.9316C9.77246 30.2441 9.67399 29.7321 9.47705 29.3955C9.28011 29.0589 9.01872 28.8906 8.69287 28.8906C8.43506 28.8906 8.25065 28.9837 8.13965 29.1699C8.03222 29.3525 7.97851 29.6945 7.97851 30.1958L7.97851 31.1519C7.97851 31.5135 8.06266 31.8018 8.23096 32.0166C8.40283 32.2279 8.63379 32.3335 8.92383 32.3335ZM3.98242 31.791C4.35482 31.791 4.64127 31.6961 4.8418 31.5063C5.04232 31.313 5.14258 31.0373 5.14258 30.6792C5.14258 29.9487 4.75228 29.5835 3.97168 29.5835C3.58496 29.5835 3.28776 29.6748 3.08008 29.8574C2.86881 30.0365 2.76318 30.3104 2.76318 30.6792C2.76318 31.0444 2.86702 31.3219 3.07471 31.5117C3.28239 31.6979 3.58496 31.791 3.98242 31.791ZM1.95215 21.3464C1.95215 21.0922 1.97005 20.8827 2.00586 20.718L3.18213 20.8415C3.13916 21.0205 3.11767 21.2067 3.11767 21.4001C3.11767 21.905 3.28239 22.315 3.61181 22.6301C3.94124 22.9416 4.36914 23.0974 4.89551 23.0974L8 23.0974L8 24.3596L2.05957 24.3596L2.05957 23.3713L3.10693 23.2048L3.10693 23.1403C2.75244 22.9434 2.47135 22.6874 2.26367 22.3723C2.05599 22.0536 1.95215 21.7116 1.95215 21.3464ZM8 13.6947L7.17285 13.9472L7.17285 13.9901C7.5345 14.2766 7.78157 14.5648 7.91406 14.8549C8.04297 15.1449 8.10742 15.5173 8.10742 15.9721C8.10742 16.5557 7.94987 17.0123 7.63476 17.3417C7.31966 17.6675 6.87386 17.8305 6.29736 17.8305C5.68506 17.8305 5.22314 17.6031 4.91162 17.1483C4.6001 16.6936 4.43001 16.0007 4.40136 15.0697L4.36914 14.0438L4.05224 14.0438C3.67269 14.0438 3.38981 14.1334 3.20361 14.3124C3.01383 14.4879 2.91894 14.7618 2.91894 15.1342C2.91894 15.4385 2.9637 15.7304 3.05322 16.0097C3.14274 16.289 3.24837 16.5575 3.37011 16.8153L2.46777 17.2235C2.29948 16.9013 2.17236 16.5486 2.08642 16.1654C1.99691 15.7823 1.95215 15.4206 1.95215 15.0805C1.95215 14.3249 2.11686 13.7556 2.44629 13.3725C2.77571 12.9857 3.29313 12.7924 3.99853 12.7924L8 12.7924L8 13.6947ZM7.14062 15.5746C7.14062 15.1163 7.01351 14.7492 6.75927 14.4735C6.50146 14.1942 6.1416 14.0546 5.67969 14.0546L5.16406 14.0546L5.19629 14.8173C5.21777 15.4117 5.31803 15.845 5.49707 16.1171C5.67252 16.3856 5.94287 16.5199 6.3081 16.5199C6.57308 16.5199 6.77897 16.4411 6.92578 16.2836C7.06901 16.126 7.14062 15.8897 7.14062 15.5746ZM8 3.82481L8 5.09238L4.33691 5.09238C3.88216 5.09238 3.54378 5.17832 3.32177 5.3502C3.09619 5.52207 2.9834 5.79063 2.9834 6.15586C2.9834 6.64284 3.14274 7.00091 3.46142 7.23008C3.77653 7.45567 4.30289 7.56846 5.04052 7.56846L8 7.56846L8 8.83067L2.05957 8.83067L2.05957 7.84238L2.83838 7.66514L2.83838 7.60068C2.5555 7.43597 2.33707 7.19785 2.1831 6.88633C2.02913 6.57123 1.95215 6.22568 1.95215 5.84971C1.95215 4.93662 2.26367 4.33148 2.88672 4.03428L2.88672 3.94834C2.5931 3.77289 2.36393 3.52582 2.19922 3.20713C2.0345 2.88845 1.95215 2.52321 1.95215 2.11143C1.95215 1.40244 2.13118 0.886818 2.48925 0.564552C2.84733 0.238706 3.39339 0.0757825 4.12744 0.0757824L8 0.0757823L8 1.33799L4.33691 1.33799C3.88216 1.33799 3.54378 1.42572 3.32177 1.60117C3.09619 1.77305 2.9834 2.0416 2.9834 2.40684C2.9834 2.8974 3.13737 3.25726 3.44531 3.48643C3.74967 3.71201 4.21875 3.82481 4.85254 3.82481L8 3.82481Z" fill="#FF6C00"/>
</svg>
