<svg width="10" height="58" viewBox="0 0 10 58" fill="none" xmlns="http://www.w3.org/2000/svg">
<path d="M4.72998 54.7451L1.14746 52.8867L1.14746 51.4902L5.95459 54.106L9 54.106L9 55.395L5.99756 55.395L1.14746 58L1.14746 56.6035L4.72998 54.7451ZM6.01904 43.1188C6.98942 43.1188 7.74674 43.3677 8.29102 43.8654C8.83529 44.3632 9.10742 45.056 9.10742 45.944C9.10742 46.4991 8.9821 46.9896 8.73144 47.4157C8.48079 47.8418 8.12093 48.1695 7.65186 48.3986C7.18278 48.6278 6.63851 48.7424 6.01904 48.7424C5.05583 48.7424 4.30387 48.4953 3.76318 48.0012C3.22249 47.507 2.95215 46.8106 2.95215 45.9118C2.95215 45.0524 3.22965 44.3721 3.78467 43.8708C4.3361 43.3695 5.08089 43.1188 6.01904 43.1188ZM6.01904 47.4426C7.39046 47.4426 8.07617 46.9359 8.07617 45.9226C8.07617 44.92 7.39046 44.4187 6.01904 44.4187C4.66195 44.4187 3.9834 44.9235 3.9834 45.9333C3.9834 46.4632 4.15885 46.8482 4.50977 47.0881C4.86068 47.3244 5.36377 47.4426 6.01904 47.4426ZM9 35.2738L8.22119 35.4511L8.22119 35.5155C8.49691 35.691 8.71354 35.9416 8.87109 36.2675C9.02864 36.5897 9.10742 36.9586 9.10742 37.3739C9.10742 38.0937 8.92838 38.6308 8.57031 38.9853C8.21224 39.3397 7.66976 39.517 6.94287 39.517L3.05957 39.517L3.05957 38.244L6.72266 38.244C7.17741 38.244 7.51937 38.1509 7.74853 37.9647C7.97412 37.7785 8.08691 37.4867 8.08691 37.0893C8.08691 36.5593 7.92936 36.1708 7.61426 35.9237C7.29557 35.6731 6.76383 35.5478 6.01904 35.5478L3.05957 35.5478L3.05957 34.2802L9 34.2802L9 35.2738ZM8.08691 28.068C8.08691 27.76 8.03857 27.4521 7.94189 27.1441L8.89258 27.1441C8.95345 27.2838 9.00358 27.4646 9.04297 27.6866C9.08594 27.905 9.10742 28.1324 9.10742 28.3687C9.10742 29.5647 8.47721 30.1627 7.2168 30.1627L4.01562 30.1627L4.01562 30.9737L3.45703 30.9737L2.99512 30.1036L1.73828 29.6739L1.73828 28.8951L3.05957 28.8951L3.05957 27.2032L4.01562 27.2032L4.01562 28.8951L7.19531 28.8951C7.49967 28.8951 7.72526 28.8199 7.87207 28.6695C8.0153 28.5156 8.08691 28.315 8.08691 28.068ZM9 19.5623L8.22119 19.7396L8.22119 19.804C8.49691 19.9795 8.71354 20.2301 8.87109 20.556C9.02864 20.8782 9.10742 21.247 9.10742 21.6624C9.10742 22.3821 8.92838 22.9192 8.57031 23.2737C8.21224 23.6282 7.66976 23.8055 6.94287 23.8055L3.05957 23.8055L3.05957 22.5325L6.72265 22.5325C7.17741 22.5325 7.51937 22.4394 7.74853 22.2532C7.97412 22.067 8.08691 21.7752 8.08691 21.3777C8.08691 20.8478 7.92936 20.4593 7.61426 20.2122C7.29557 19.9616 6.76383 19.8362 6.01904 19.8362L3.05957 19.8362L3.05957 18.5687L9 18.5687L9 19.5623ZM2.95215 11.5347C2.95215 10.7935 3.2207 10.217 3.75781 9.80518C4.29492 9.38981 5.04866 9.18213 6.01904 9.18213C6.993 9.18213 7.75211 9.3916 8.29638 9.81055C8.83707 10.2295 9.10742 10.8114 9.10742 11.5562C9.10742 12.3081 8.83707 12.8918 8.29638 13.3071L8.29638 13.3931L9 13.624L9 14.5693L0.642576 14.5693L0.642576 13.3071L2.62988 13.3071C2.77669 13.3071 2.99512 13.3143 3.28515 13.3286C3.57519 13.3429 3.7596 13.3537 3.83838 13.3608L3.83838 13.3071C3.24756 12.9061 2.95215 12.3153 2.95215 11.5347ZM3.9834 11.8623C3.9834 12.3708 4.13379 12.7378 4.43457 12.9634C4.73177 13.1854 5.23128 13.3 5.9331 13.3071L6.01904 13.3071C6.74235 13.3071 7.26693 13.1925 7.59277 12.9634C7.91504 12.7342 8.07617 12.36 8.07617 11.8408C8.07617 11.3932 7.89892 11.0548 7.54443 10.8257C7.18994 10.5929 6.6779 10.4766 6.0083 10.4766C4.65836 10.4766 3.9834 10.9385 3.9834 11.8623ZM9.10742 2.92158C9.10742 3.84541 8.83886 4.56872 8.30176 5.0915C7.76107 5.61071 7.01806 5.87031 6.07275 5.87031C5.10237 5.87031 4.33968 5.62861 3.78467 5.14521C3.22965 4.66182 2.95215 3.99759 2.95215 3.15254C2.95215 2.36836 3.19026 1.74889 3.6665 1.29414C4.14274 0.839387 4.79801 0.612011 5.63232 0.612011L6.31445 0.612011L6.31445 4.57051C6.89095 4.5526 7.33496 4.39684 7.64648 4.10322C7.95442 3.8096 8.1084 3.39603 8.1084 2.8625C8.1084 2.51159 8.07617 2.18574 8.01172 1.88496C7.94368 1.5806 7.83268 1.25475 7.67871 0.907421L8.70459 0.907421C8.8514 1.21536 8.95524 1.52689 9.01611 1.84199C9.07698 2.1571 9.10742 2.51696 9.10742 2.92158ZM3.9082 3.15254C3.9082 3.55358 4.03532 3.87585 4.28955 4.11933C4.54378 4.35924 4.91439 4.50247 5.40136 4.54902L5.40136 1.85273C4.9108 1.85989 4.5402 1.97806 4.28955 2.20723C4.03532 2.43639 3.9082 2.7515 3.9082 3.15254Z" fill="#303030"/>
</svg>
